<svg width="25" height="25" viewBox="0 0 25 25" fill="none" xmlns="http://www.w3.org/2000/svg">
    <path fill-rule="evenodd" clip-rule="evenodd" d="M24.6512 12.3552C24.6512 18.9826 19.2788 24.3552 12.6517 24.3552C6.02466 24.3552 0.652344 18.9826 0.652344 12.3552C0.652344 5.72781 6.02466 0.355225 12.6517 0.355225C19.2788 0.355225 24.6512 5.72781 24.6512 12.3552ZM15.5354 7.89703C17.2045 8.47024 18.4255 9.32857 18.186 10.9259C18.012 12.0956 17.3612 12.6613 16.4965 12.8594C17.6828 13.4746 18.0872 14.6422 17.7115 16.0541C16.9982 18.0859 15.3026 18.2569 13.0475 17.8323L12.4999 20.0163L11.1779 19.6877L11.718 17.5329C11.3753 17.4481 11.025 17.3573 10.6642 17.2605L10.1219 19.4259L8.80149 19.0972L9.34834 16.9087L6.68566 16.2394L7.34248 14.7313C7.34248 14.7313 8.31716 14.9887 8.30361 14.9699C8.67796 15.0622 8.84443 14.8191 8.90996 14.6578L10.3938 8.72984C10.4104 8.44999 10.3132 8.09735 9.77768 7.9638C9.79802 7.94955 8.81731 7.72596 8.81731 7.72596L9.16907 6.31919L11.8355 6.97718L12.3778 4.81337L13.699 5.14199L13.168 7.26304C13.5235 7.34332 13.8805 7.4251 14.2278 7.51138L14.755 5.40384L16.077 5.73247L15.5354 7.89703ZM12.3734 11.5062C13.2739 11.7449 15.2333 12.2644 15.5748 10.9023C15.9233 9.50863 14.0196 9.08772 13.0875 8.88163L13.0874 8.88161L13.0873 8.88159C12.9817 8.85825 12.8887 8.83767 12.8127 8.81874L12.1544 11.4492C12.2171 11.4647 12.2908 11.4843 12.3733 11.5061L12.3734 11.5062ZM11.3528 15.7412C12.4314 16.0253 14.7902 16.6467 15.1655 15.1457C15.5497 13.611 13.2627 13.0998 12.1468 12.8504C12.0221 12.8226 11.912 12.798 11.8219 12.7756L11.0958 15.6747C11.1696 15.6929 11.2561 15.7157 11.3528 15.7412L11.3528 15.7412Z" fill="#F7931A"/>
</svg>
