<?xml version="1.0" encoding="UTF-8"?><svg id="Layer_1" xmlns="http://www.w3.org/2000/svg" xmlns:xlink="http://www.w3.org/1999/xlink" viewBox="0 0 327.79 79.77"><defs><style>.cls-1{fill:url(#linear-gradient);}.cls-2{fill:url(#linear-gradient-3);}.cls-3{fill:url(#linear-gradient-4);}.cls-4{fill:url(#linear-gradient-2);}.cls-5{fill:url(#linear-gradient-6);}.cls-6{fill:url(#linear-gradient-7);}.cls-7{fill:url(#linear-gradient-5);}</style><linearGradient id="linear-gradient" x1="27.22" y1="70.61" x2="36.25" y2="70.61" gradientUnits="userSpaceOnUse"><stop offset="0" stop-color="#311b92"/><stop offset=".53" stop-color="#673ab7"/><stop offset=".97" stop-color="#311b92"/></linearGradient><linearGradient id="linear-gradient-2" x1="27.18" y1="49.9" x2="27.18" y2="33.7" xlink:href="#linear-gradient"/><linearGradient id="linear-gradient-3" x1="10.46" y1="45" x2="37.09" y2="45" gradientUnits="userSpaceOnUse"><stop offset="0" stop-color="#4527a0"/><stop offset="1" stop-color="#1a237e"/></linearGradient><linearGradient id="linear-gradient-4" x1="0" y1="25.11" x2="44.25" y2="25.11" gradientUnits="userSpaceOnUse"><stop offset="0" stop-color="#00c853"/><stop offset="1" stop-color="#69f0ae"/></linearGradient><linearGradient id="linear-gradient-5" x1="0" y1="24.49" x2="41.89" y2="24.49" gradientUnits="userSpaceOnUse"><stop offset="0" stop-color="#4caf50"/><stop offset="1" stop-color="#43a047"/></linearGradient><linearGradient id="linear-gradient-6" x1="18.83" y1="55.53" x2="50.02" y2="55.53" gradientUnits="userSpaceOnUse"><stop offset="0" stop-color="#f9a825"/><stop offset="1" stop-color="#f57f17"/></linearGradient><linearGradient id="linear-gradient-7" x1="21.15" y1="57.4" x2="50.02" y2="57.4" gradientUnits="userSpaceOnUse"><stop offset="0" stop-color="#ffe57f"/><stop offset="1" stop-color="#f6871a"/></linearGradient></defs><g><path class="cls-1" d="M30.14,70.72c-1.39-3.1-1-6.67-.37-9.27-.2,.29-.4,.57-.59,.87-2.2,3.39-2.47,7.06-1.19,10.84,.49,1.47,1.35,3.37,2.76,4.21,0,0-.06-.03-.16-.07,1.99,1.42,4.03,2.13,5.26,2.47,.32,.09,.54-.31,.31-.54-1.4-1.36-4.18-4.39-6.01-8.49Z"/><g><path class="cls-4" d="M24.14,47.82c.73-.18,1.5-.37,2.28-.56,.06-.06,.12-.12,.18-.18,4.27-4.12,13.99-8.41,16.34-10.88,2.13-2.25,.03-2.5,.03-2.5-3.16,0-13.47,2.11-17.83,3.17-3.25,.79-6.4,1.17-8.68,1.36-.33,.32-.66,.64-.99,.96-1.93,1.94-5,4.8-5,7.8,0,1.84,.77,2.54,1.55,2.79,.07,.01,.14,.03,.22,.04l.7,.08c.33-.01,.58-.07,.63-.08-.02,0-.12,.03-.28,.07,.97-.06,4.1-.39,10.86-2.07Z"/><path class="cls-2" d="M24.14,47.82c.73-.18,1.5-.37,2.28-.56,.06-.06,.12-.12,.18-.18,2.49-2.4,6.84-4.86,10.49-6.99-5.31,1.38-12.42,3.17-17.24,4.16-3.81,.79-6.92,1.2-9.2,1.41-.12,.44-.2,.88-.2,1.32,0,1.85,.79,2.56,1.57,2.8,.07,.01,.13,.02,.2,.03l.7,.08c.33-.01,.58-.07,.63-.08-.02,0-.12,.03-.28,.07,.97-.06,4.1-.39,10.86-2.07Z"/></g><g><path class="cls-3" d="M44.12,6.1c-.4-2.27-1.15-4.02-2.19-6.1-.01,.01-.03,.02-.04,.03-8.27,7.31-16.89,14-25.57,20.81C9.17,26.45-1.7,31.63,.22,42.28c.64,3.54,2.34,5.56,4.32,6.67,3.88,2.19,8.83,.92,9.02,.87-.18,.05-3.1,.74-3.1-2.83,0-3,3.07-5.86,5-7.8,3.2-3.2,6.76-6.04,10.33-8.81,5.77-4.49,12.2-8.72,16.1-15.09,1.63-2.66,2.78-6.03,2.23-9.18Z"/><path class="cls-7" d="M10.89,32.1c8.39-7.06,20.46-14.36,28.31-25.23,1.95-2.69,2.56-5.09,2.69-6.83-8.27,7.31-16.89,14-25.57,20.81C9.17,26.45-1.7,31.63,.22,42.28c.64,3.54,2.34,5.56,4.32,6.67-2.13-2.58-2.37-9.52,6.35-16.85Z"/></g><g><path class="cls-5" d="M42.97,33.7s4.19-.15,6.13,2.99,.51,6.45-1.29,8.59c-2.14,2.56-5.51,4.45-8.08,6.55-3.72,3.05-7.91,6.43-10.55,10.5-2.2,3.39-2.47,7.06-1.19,10.84,.49,1.47,1.35,3.37,2.76,4.21,0,0-10.74-4.47-11.83-14-.74-6.49,3.21-11.95,7.68-16.28,4.27-4.12,13.99-8.41,16.34-10.88,2.13-2.25,.03-2.5,.03-2.5Z"/><path class="cls-6" d="M39.73,51.82c2.56-2.1,5.94-4,8.08-6.55,1.65-1.97,2.99-4.93,1.68-7.84-.11,.16-.24,.32-.4,.48-3.59,3.59-8.84,5.88-12.98,8.78-4.32,3.03-8.73,6.52-11.8,10.87-2.03,2.88-3.73,6.83-2.98,10.4,.24,1.13,.64,2.23,1.15,3.28,3.5,4.14,8.27,6.13,8.27,6.13-1.42-.83-2.27-2.74-2.76-4.21-1.27-3.78-1-7.45,1.19-10.84,2.64-4.07,6.83-7.45,10.55-10.5Z"/></g></g><g><path d="M70.12,39.88c0-2.73,.4-5.29,1.21-7.68,.8-2.39,1.97-4.48,3.49-6.24,1.52-1.77,3.39-3.15,5.61-4.17,2.22-1.01,4.73-1.52,7.53-1.52,2.2,0,4.11,.29,5.72,.87,1.61,.58,2.96,1.29,4.06,2.15,1.1,.86,2,1.79,2.7,2.81,.7,1.01,1.23,1.97,1.6,2.86,.37,.89,.62,1.66,.76,2.31,.14,.65,.21,1.01,.21,1.08h-2.31c-.25-1.57-.75-2.98-1.52-4.22-.77-1.24-1.73-2.3-2.88-3.17-1.15-.87-2.44-1.54-3.85-1.99-1.42-.45-2.91-.68-4.48-.68-2.45,0-4.63,.47-6.56,1.42-1.92,.94-3.55,2.21-4.88,3.8-1.33,1.59-2.34,3.45-3.04,5.59-.7,2.13-1.05,4.41-1.05,6.82s.35,4.69,1.05,6.82c.7,2.13,1.71,4,3.04,5.59,1.33,1.59,2.95,2.86,4.88,3.8,1.92,.94,4.11,1.42,6.56,1.42,1.82,0,3.52-.38,5.11-1.13,1.59-.75,2.98-1.75,4.17-2.99,1.19-1.24,2.14-2.67,2.86-4.3s1.13-3.31,1.23-5.06h2.31c-.21,2.24-.76,4.3-1.65,6.19-.89,1.89-2.03,3.52-3.41,4.9s-2.98,2.46-4.8,3.23c-1.82,.77-3.76,1.15-5.82,1.15-2.8,0-5.31-.51-7.53-1.52-2.22-1.01-4.09-2.4-5.61-4.17-1.52-1.77-2.68-3.85-3.49-6.24-.8-2.39-1.21-4.96-1.21-7.68Z"/><path d="M142.39,39.88c0,2.73-.4,5.29-1.21,7.68-.8,2.4-1.97,4.48-3.49,6.24-1.52,1.77-3.38,3.16-5.59,4.17-2.2,1.01-4.7,1.52-7.5,1.52s-5.31-.51-7.53-1.52c-2.22-1.01-4.09-2.4-5.61-4.17-1.52-1.77-2.68-3.85-3.49-6.24-.8-2.39-1.21-4.96-1.21-7.68s.4-5.29,1.21-7.68c.8-2.39,1.97-4.48,3.49-6.24,1.52-1.77,3.39-3.15,5.61-4.17,2.22-1.01,4.73-1.52,7.53-1.52s5.3,.51,7.5,1.52c2.2,1.01,4.06,2.4,5.59,4.17,1.52,1.77,2.68,3.85,3.49,6.24,.8,2.4,1.21,4.96,1.21,7.68Zm-33.3,0c0,2.41,.35,4.69,1.05,6.82,.7,2.13,1.71,4,3.04,5.59,1.33,1.59,2.95,2.86,4.88,3.8,1.92,.94,4.11,1.42,6.56,1.42s4.62-.47,6.53-1.42c1.91-.94,3.52-2.21,4.85-3.8,1.33-1.59,2.34-3.45,3.04-5.59,.7-2.13,1.05-4.41,1.05-6.82s-.35-4.69-1.05-6.82c-.7-2.13-1.71-3.99-3.04-5.59-1.33-1.59-2.95-2.86-4.85-3.8-1.91-.94-4.08-1.42-6.53-1.42s-4.63,.47-6.56,1.42-3.55,2.21-4.88,3.8c-1.33,1.59-2.34,3.45-3.04,5.59-.7,2.13-1.05,4.41-1.05,6.82Z"/><path d="M147.32,21.16h3.3l14.63,34.88h.11l14.47-34.88h3.3V58.61h-2.31V23.99h-.11l-14.26,34.61h-2.31l-14.42-34.61h-.11V58.61h-2.31V21.16Z"/><path d="M206.95,21.16c2.34,0,4.33,.34,5.98,1.02,1.64,.68,2.98,1.58,4.01,2.7,1.03,1.12,1.78,2.4,2.26,3.83,.47,1.43,.71,2.92,.71,4.46s-.24,2.98-.71,4.43c-.47,1.45-1.22,2.74-2.26,3.85-1.03,1.12-2.37,2.02-4.01,2.7-1.64,.68-3.64,1.02-5.98,1.02h-8.65v13.43h-8.23V21.16h16.89Zm-2.26,17.62c.94,0,1.85-.07,2.73-.21,.87-.14,1.64-.41,2.31-.81,.66-.4,1.2-.97,1.6-1.7,.4-.73,.6-1.7,.6-2.88s-.2-2.15-.6-2.88c-.4-.73-.94-1.3-1.6-1.7-.67-.4-1.43-.67-2.31-.81-.87-.14-1.78-.21-2.73-.21h-6.4v11.22h6.4Z"/><path d="M239.83,21.16l14,37.45h-8.55l-2.83-8.34h-14l-2.94,8.34h-8.29l14.16-37.45h8.44Zm.47,22.97l-4.72-13.74h-.1l-4.88,13.74h9.7Z"/><path d="M265.27,21.16l15.63,25.12h.1V21.16h7.71V58.61h-8.23l-15.58-25.07h-.11v25.07h-7.71V21.16h8.18Z"/><path d="M291.91,21.16h9.23l8.76,14.79,8.71-14.79h9.18l-13.9,23.08v14.37h-8.23v-14.58l-13.74-22.87Z"/></g></svg>