<svg width="140" height="40" viewBox="0 0 140 40" fill="none" xmlns="http://www.w3.org/2000/svg">
<path d="M15.6121 35.462C14.9157 33.9066 15.1076 32.1176 15.4245 30.8123C15.3202 30.9541 15.2201 31.1001 15.1284 31.246C14.0275 32.9433 13.8899 34.7865 14.5279 36.6797C14.7739 37.4178 15.2035 38.3728 15.9124 38.7898C15.9124 38.7898 15.8832 38.7773 15.8332 38.7523C16.834 39.4654 17.8515 39.8198 18.4687 39.9866C18.6313 40.0283 18.7439 39.8323 18.623 39.7156C17.9224 39.0317 16.5296 37.5137 15.608 35.4579L15.6121 35.462Z" fill="url(#paint0_linear_9_2008)"/>
<path d="M12.6014 23.9776C12.9683 23.8859 13.352 23.7941 13.7481 23.6941C13.7773 23.6649 13.8065 23.6357 13.8399 23.6065C15.9792 21.5423 20.8541 19.3905 22.03 18.1519C23.1018 17.026 22.0467 16.8967 22.0467 16.8967C20.4621 16.8967 15.2953 17.9559 13.1018 18.4856C11.4712 18.8817 9.89493 19.0735 8.74815 19.1653C8.58134 19.3238 8.41453 19.4864 8.2519 19.649C7.28026 20.6207 5.74564 22.0594 5.74564 23.5606C5.74564 24.4822 6.13347 24.8367 6.52129 24.9618C6.55882 24.9701 6.59218 24.9785 6.62971 24.9826L6.98418 25.0243C7.15098 25.0202 7.27609 24.991 7.30111 24.9826C7.2886 24.9826 7.24272 24.9993 7.16349 25.016C7.6514 24.9826 9.21937 24.82 12.6055 23.9818L12.6014 23.9776Z" fill="url(#paint1_linear_9_2008)"/>
<path d="M12.6014 23.9778C12.9683 23.8861 13.352 23.7943 13.7481 23.6943C13.7773 23.6651 13.8065 23.6359 13.8399 23.6067C15.0868 22.4015 17.2677 21.1671 19.1026 20.1038C16.4421 20.7918 12.8724 21.6926 10.4579 22.193C8.54381 22.5892 6.98835 22.7935 5.84573 22.8978C5.78317 23.1188 5.74564 23.3398 5.74564 23.5608C5.74564 24.4907 6.14181 24.8452 6.5338 24.9661C6.56716 24.9703 6.60052 24.9787 6.63388 24.9828L6.98835 25.0245C7.15515 25.0204 7.28026 24.9912 7.30528 24.9828C7.29277 24.9828 7.24689 24.9995 7.16766 25.0162C7.65557 24.9828 9.22354 24.8202 12.6097 23.982L12.6014 23.9778Z" fill="url(#paint2_linear_9_2008)"/>
<path d="M22.6223 3.05991C22.4221 1.92146 22.0427 1.04156 21.5214 -0.000976562C21.5131 0.00319358 21.5089 0.0115339 21.5005 0.015704C17.3554 3.68126 13.0352 7.03405 8.67736 10.4536C5.09938 13.2601 -0.350998 15.8581 0.612305 21.2C0.933406 22.9765 1.78411 23.9857 2.77661 24.5445C4.71989 25.6412 7.2053 25.0032 7.29704 24.9782C7.2053 25.0032 5.74158 25.3451 5.74158 23.5562C5.74158 22.0549 7.28036 20.6162 8.24784 19.6446C9.85334 18.0391 11.6382 16.617 13.4272 15.2242C16.3212 12.9765 19.5448 10.8497 21.5005 7.6554C22.3137 6.32513 22.8934 4.62788 22.6181 3.05157L22.6223 3.05991Z" fill="url(#paint3_linear_9_2008)"/>
<path d="M5.95839 16.0918C10.1619 12.5513 16.2169 8.88992 20.1536 3.43954C21.1294 2.08842 21.438 0.887418 21.5005 0.0116882C17.3554 3.67724 13.0351 7.03004 8.67733 10.4496C5.09934 13.2602 -0.351032 15.8582 0.612271 21.2002C0.933372 22.9767 1.78408 23.9858 2.77657 24.5446C1.70902 23.2519 1.58808 19.7698 5.95839 16.0918Z" fill="url(#paint4_linear_9_2008)"/>
<path d="M22.047 16.8961C22.047 16.8961 24.1487 16.821 25.1203 18.3932C26.0878 19.9653 25.3747 21.625 24.474 22.6967C23.3981 23.977 21.7092 24.9278 20.4248 25.9828C18.5607 27.5133 16.459 29.2063 15.1329 31.2455C14.0319 32.9428 13.8943 34.786 14.5324 36.6792C14.7784 37.4173 15.2079 38.3723 15.9168 38.7893C15.9168 38.7893 10.529 36.55 9.9869 31.7668C9.61576 28.5141 11.5966 25.7701 13.8401 23.6058C16.0837 21.4415 20.8543 19.3898 22.0303 18.1513C23.102 17.0254 22.047 16.8961 22.047 16.8961Z" fill="url(#paint5_linear_9_2008)"/>
<path d="M20.4205 25.9832C21.7049 24.9281 23.3979 23.9815 24.4697 22.6971C25.2995 21.7088 25.9667 20.2242 25.312 18.7646C25.2536 18.8481 25.1911 18.9273 25.1119 19.0023C23.3104 20.8038 20.679 21.9506 18.6023 23.406C16.4338 24.9239 14.2236 26.6712 12.6848 28.8564C11.6673 30.2993 10.8124 32.2801 11.1878 34.0732C11.3045 34.6404 11.5089 35.1908 11.7632 35.7204C13.5189 37.7972 15.9084 38.7938 15.9084 38.7938C15.1953 38.3768 14.7699 37.4219 14.5239 36.6837C13.8858 34.7863 14.0235 32.9473 15.1244 31.2501C16.4505 29.2067 18.5522 27.5136 20.4163 25.9873L20.4205 25.9832Z" fill="url(#paint6_linear_9_2008)"/>
<path d="M31.8506 24.2079C31.8506 23.0695 32.0174 22.0019 32.3552 21.0053C32.6888 20.0086 33.1767 19.137 33.8106 18.4031C34.4444 17.665 35.2242 17.0895 36.15 16.6641C37.0758 16.243 38.1225 16.0303 39.2901 16.0303C40.2075 16.0303 41.004 16.1512 41.6754 16.3931C42.3468 16.6349 42.9098 16.931 43.3685 17.2897C43.8272 17.6483 44.2025 18.0361 44.4945 18.4615C44.7864 18.8827 45.0074 19.283 45.1617 19.6541C45.316 20.0253 45.4202 20.3464 45.4786 20.6174C45.537 20.8885 45.5662 21.0386 45.5662 21.0678H44.6029C44.4986 20.4131 44.2901 19.8251 43.969 19.308C43.6479 18.7909 43.2476 18.3489 42.768 17.9861C42.2885 17.6233 41.7505 17.3439 41.1625 17.1562C40.5704 16.9686 39.949 16.8726 39.2943 16.8726C38.2726 16.8726 37.3635 17.0686 36.5587 17.4648C35.758 17.8568 35.0783 18.3864 34.5236 19.0495C33.969 19.7125 33.5478 20.4882 33.2559 21.3806C32.964 22.2688 32.8181 23.2196 32.8181 24.2246C32.8181 25.2296 32.964 26.1804 33.2559 27.0686C33.5478 27.9569 33.969 28.7367 34.5236 29.3997C35.0783 30.0628 35.7538 30.5924 36.5587 30.9844C37.3593 31.3764 38.2726 31.5766 39.2943 31.5766C40.0533 31.5766 40.7622 31.4181 41.4252 31.1053C42.0883 30.7926 42.6679 30.3756 43.1642 29.8585C43.6604 29.3414 44.0566 28.745 44.3568 28.0653C44.6571 27.3856 44.8281 26.685 44.8698 25.9552H45.8331C45.7455 26.8893 45.5161 27.7484 45.145 28.5365C44.7739 29.3247 44.2985 30.0044 43.723 30.5799C43.1475 31.1554 42.4803 31.6058 41.7213 31.9269C40.9623 32.248 40.1533 32.4064 39.2943 32.4064C38.1266 32.4064 37.0799 32.1937 36.1542 31.7726C35.2284 31.3514 34.4486 30.7717 33.8147 30.0336C33.1809 29.2955 32.6971 28.4281 32.3593 27.4314C32.0257 26.4348 31.8548 25.3631 31.8548 24.2288L31.8506 24.2079Z" fill="#CCCEDA"/>
<path d="M61.9883 24.2079C61.9883 25.3464 61.8215 26.4139 61.4837 27.4106C61.1501 28.4114 60.6622 29.2788 60.0283 30.0128C59.3944 30.7509 58.6188 31.3305 57.6972 31.7517C56.7798 32.1729 55.7372 32.3856 54.5696 32.3856C53.4019 32.3856 52.3552 32.1729 51.4295 31.7517C50.5037 31.3305 49.7239 30.7509 49.09 30.0128C48.4561 29.2746 47.9724 28.4073 47.6346 27.4106C47.301 26.4139 47.13 25.3422 47.13 24.2079C47.13 23.0736 47.2968 22.0019 47.6346 21.0053C47.9682 20.0086 48.4561 19.137 49.09 18.4031C49.7239 17.665 50.5037 17.0895 51.4295 16.6641C52.3552 16.243 53.4019 16.0303 54.5696 16.0303C55.7372 16.0303 56.7798 16.243 57.6972 16.6641C58.6146 17.0853 59.3903 17.665 60.0283 18.4031C60.6622 19.1412 61.1459 20.0086 61.4837 21.0053C61.8173 22.0061 61.9883 23.0736 61.9883 24.2079ZM48.1017 24.2079C48.1017 25.2129 48.2476 26.1637 48.5395 27.052C48.8315 27.9402 49.2526 28.72 49.8073 29.3831C50.3619 30.0461 51.0375 30.5757 51.8423 30.9677C52.643 31.3597 53.5562 31.5599 54.5779 31.5599C55.5996 31.5599 56.5045 31.3639 57.301 30.9677C58.0975 30.5757 58.7689 30.0461 59.3235 29.3831C59.8782 28.72 60.2994 27.9444 60.5913 27.052C60.8832 26.1637 61.0291 25.2129 61.0291 24.2079C61.0291 23.2029 60.8832 22.2521 60.5913 21.3639C60.2994 20.4756 59.8782 19.7 59.3235 19.0328C58.7689 18.3697 58.0933 17.8401 57.301 17.4481C56.5045 17.0561 55.5996 16.856 54.5779 16.856C53.5562 16.856 52.6471 17.052 51.8423 17.4481C51.0375 17.8443 50.3619 18.3697 49.8073 19.0328C49.2526 19.6958 48.8315 20.4715 48.5395 21.3639C48.2476 22.2521 48.1017 23.2029 48.1017 24.2079Z" fill="#CCCEDA"/>
<path d="M64.0442 16.4013H65.4203L71.5212 30.9467H71.5671L77.6013 16.4013H78.9774V32.0185H78.0141V17.5814H77.9683L72.0216 32.0143H71.0583L65.045 17.5814H64.9991V32.0143H64.0358V16.4013H64.0442Z" fill="#CCCEDA"/>
<path d="M88.9107 16.4013C89.8865 16.4013 90.7164 16.5431 91.4045 16.8266C92.0884 17.1102 92.6472 17.4855 93.0767 17.9526C93.5062 18.4196 93.819 18.9534 94.0191 19.5497C94.2151 20.1461 94.3152 20.7674 94.3152 21.4096C94.3152 22.0518 94.2151 22.6523 94.0191 23.257C93.8231 23.8617 93.5104 24.3996 93.0767 24.8625C92.6472 25.3295 92.0884 25.7049 91.4045 25.9884C90.7206 26.272 89.8865 26.4138 88.9107 26.4138H85.3035V32.0143H81.8715V16.4013H88.9149H88.9107ZM87.9683 23.7491C88.3603 23.7491 88.7397 23.7199 89.1067 23.6615C89.4695 23.6031 89.7906 23.4905 90.07 23.3237C90.3452 23.1569 90.5704 22.9192 90.7372 22.6148C90.904 22.3104 90.9875 21.9059 90.9875 21.4138C90.9875 20.9217 90.904 20.5172 90.7372 20.2128C90.5704 19.9084 90.3452 19.6707 90.07 19.5039C89.7906 19.3371 89.4737 19.2245 89.1067 19.1661C88.7439 19.1077 88.3644 19.0785 87.9683 19.0785H85.2994V23.7574H87.9683V23.7491Z" fill="#CCCEDA"/>
<path d="M102.626 16.4013L108.464 32.0185H104.899L103.719 28.5406H97.8806L96.6545 32.0185H93.1975L99.1024 16.4013H102.622H102.626ZM102.822 25.9801L100.854 20.2503H100.812L98.7771 25.9801H102.822Z" fill="#CCCEDA"/>
<path d="M113.231 16.4013L119.749 26.8767H119.791V16.4013H123.006V32.0185H119.574L113.077 21.5639H113.031V32.0185H109.816V16.4013H113.227H113.231Z" fill="#CCCEDA"/>
<path d="M124.344 16.4013H128.193L131.846 22.5689L135.479 16.4013H139.307L133.51 26.026V32.0185H130.078V25.9384L124.348 16.4013H124.344Z" fill="#CCCEDA"/>
<defs>
<linearGradient id="paint0_linear_9_2008" x1="14.1484" y1="35.4078" x2="18.6772" y2="35.4078" gradientUnits="userSpaceOnUse">
<stop stop-color="#311B92"/>
<stop offset="0.53" stop-color="#673AB7"/>
<stop offset="0.97" stop-color="#311B92"/>
</linearGradient>
<linearGradient id="paint1_linear_9_2008" x1="14.1276" y1="25.0202" x2="14.1276" y2="16.8967" gradientUnits="userSpaceOnUse">
<stop stop-color="#311B92"/>
<stop offset="0.53" stop-color="#673AB7"/>
<stop offset="0.97" stop-color="#311B92"/>
</linearGradient>
<linearGradient id="paint2_linear_9_2008" x1="5.74564" y1="22.5641" x2="19.0984" y2="22.5641" gradientUnits="userSpaceOnUse">
<stop stop-color="#4527A0"/>
<stop offset="1" stop-color="#1A237E"/>
</linearGradient>
<linearGradient id="paint3_linear_9_2008" x1="0.499711" y1="12.5929" x2="22.689" y2="12.5929" gradientUnits="userSpaceOnUse">
<stop stop-color="#00C853"/>
<stop offset="1" stop-color="#69F0AE"/>
</linearGradient>
<linearGradient id="paint4_linear_9_2008" x1="0.499677" y1="12.2802" x2="21.5047" y2="12.2802" gradientUnits="userSpaceOnUse">
<stop stop-color="#4CAF50"/>
<stop offset="1" stop-color="#43A047"/>
</linearGradient>
<linearGradient id="paint5_linear_9_2008" x1="9.94103" y1="27.8427" x2="25.5791" y2="27.8427" gradientUnits="userSpaceOnUse">
<stop stop-color="#F9A825"/>
<stop offset="1" stop-color="#F57F17"/>
</linearGradient>
<linearGradient id="paint6_linear_9_2008" x1="11.1044" y1="28.7772" x2="25.5789" y2="28.7772" gradientUnits="userSpaceOnUse">
<stop stop-color="#FFE57F"/>
<stop offset="1" stop-color="#F6871A"/>
</linearGradient>
</defs>
</svg>
