<svg width="36" height="25" viewBox="0 0 36 25" fill="none" xmlns="http://www.w3.org/2000/svg">
    <rect x="1.15234" y="0.85498" width="34" height="23" rx="3.5" fill="white" stroke="#D9D9D9"/>
    <path fill-rule="evenodd" clip-rule="evenodd" d="M18.4023 17.5119C17.2108 18.5402 15.6651 19.161 13.9761 19.161C10.2074 19.161 7.15234 16.0704 7.15234 12.258C7.15234 8.44555 10.2074 5.35498 13.9761 5.35498C15.6651 5.35498 17.2108 5.97573 18.4023 7.00401C19.5939 5.97573 21.1396 5.35498 22.8286 5.35498C26.5972 5.35498 29.6523 8.44555 29.6523 12.258C29.6523 16.0704 26.5972 19.161 22.8286 19.161C21.1396 19.161 19.5939 18.5402 18.4023 17.5119Z" fill="#ED0006"/>
    <path fill-rule="evenodd" clip-rule="evenodd" d="M18.4023 17.5119C19.8695 16.2458 20.7999 14.3618 20.7999 12.258C20.7999 10.1542 19.8695 8.27015 18.4023 7.00401C19.5939 5.97573 21.1396 5.35498 22.8286 5.35498C26.5972 5.35498 29.6523 8.44555 29.6523 12.258C29.6523 16.0704 26.5972 19.161 22.8286 19.161C21.1396 19.161 19.5939 18.5402 18.4023 17.5119Z" fill="#F9A000"/>
    <path fill-rule="evenodd" clip-rule="evenodd" d="M18.4014 7.00403C19.8686 8.27016 20.7989 10.1542 20.7989 12.258C20.7989 14.3618 19.8686 16.2457 18.4014 17.5119C16.9342 16.2457 16.0039 14.3618 16.0039 12.258C16.0039 10.1542 16.9342 8.27016 18.4014 7.00403Z" fill="#FF5E00"/>
</svg>
