<svg width="64" height="64" viewBox="0 0 62 46" fill="none" xmlns="http://www.w3.org/2000/svg">
<path d="M43.6257 0.795898H5.22565C2.85765 0.795898 0.958984 2.69456 0.958984 5.06256V30.6626C0.958984 31.7942 1.40851 32.8794 2.20866 33.6796C3.00882 34.4797 4.09406 34.9292 5.22565 34.9292H20.159V37.4892C20.159 39.8456 18.2487 41.7559 15.8923 41.7559V43.4626H32.959V41.7559H32.8133C30.4073 41.7559 28.3258 40.0806 27.8116 37.7301L27.199 34.9296L26.559 30.6626H3.94565V3.78256H44.9057V10.6092L47.8923 11.2496V5.06256C47.8923 3.93097 47.4428 2.84573 46.6426 2.04558C45.8425 1.24542 44.7572 0.795898 43.6257 0.795898Z" fill="#CECED1"/>
<path d="M19.3586 13.6492H18.2386V11.4092H17.1186V13.6492H15.9986V20.3692H17.1186V22.6092H18.2386V20.3692H19.3586V13.6492ZM13.9186 16.3692H12.7986V14.1292H11.6786V16.3692H10.5586V21.9692H11.6786V24.2092H12.7986V21.9692H13.9186V16.3692ZM12.7986 20.8492H11.6786V17.4892H12.7986V20.8492Z" fill="#CECED1"/>
<path d="M29.5988 13.6492H28.4788V11.4092H27.3588V13.6492H26.2388V20.3692H27.3588V22.6092H28.4788V20.3692H29.5988V13.6492ZM24.1588 16.3692H23.0388V14.1292H21.9188V16.3692H20.7988V21.9692H21.9188V24.2092H23.0388V21.9692H24.1588V16.3692Z" fill="#CECED1"/>
<path fill-rule="evenodd" clip-rule="evenodd" d="M52.9468 16.6213C50.2056 14.1186 46.6051 12.769 42.8942 12.8533C39.1834 12.9377 35.6479 14.4494 33.0232 17.074C30.3986 19.6987 28.8869 23.2342 28.8026 26.945C28.7182 30.6559 30.0678 34.2564 32.5705 36.9975C35.0733 39.7387 38.5365 41.4094 42.2396 41.6622C45.8447 41.9083 49.4071 40.7921 52.2245 38.541L59.197 45.6239L61.4595 43.3615L54.4874 36.2789C56.7404 33.4608 57.8576 29.897 57.6114 26.2904C57.3587 22.5872 55.6879 19.1241 52.9468 16.6213ZM38.9585 16.9479C41.0051 16.1002 43.257 15.8784 45.4296 16.3106C47.6022 16.7427 49.5978 17.8094 51.1642 19.3758C52.7305 20.9421 53.7972 22.9378 54.2294 25.1104C54.6616 27.283 54.4398 29.5349 53.5921 31.5814C52.7444 33.628 51.3088 35.3772 49.467 36.6078C47.6253 37.8384 45.46 38.4953 43.245 38.4954C40.2754 38.4921 37.4285 37.311 35.3287 35.2112C33.2291 33.1115 32.048 30.2647 32.0446 27.2953C32.0446 25.0802 32.7015 22.9148 33.9321 21.073C35.1628 19.2312 36.912 17.7956 38.9585 16.9479Z" fill="#CECED1"/>
<path d="M46.7676 28.5296V25.9082H48.6313V28.5296H46.7676Z" fill="#CECED1"/>
<path d="M42.4082 28.5296V25.9082H44.2719V28.5296H42.4082Z" fill="#CECED1"/>
<path d="M38.0488 28.5296V25.9082H39.9125V28.5296H38.0488Z" fill="#CECED1"/>
</svg>
