<svg width="40" height="35" viewBox="0 0 40 35" fill="none" xmlns="http://www.w3.org/2000/svg">
    <path fill-rule="evenodd" clip-rule="evenodd" d="M5.33739 23.9515H2.30068C2.09287 23.9515 1.91614 24.1026 1.88373 24.3076L0.655529 32.0947C0.631118 32.2484 0.750115 32.3869 0.905975 32.3869H2.35573C2.56354 32.3869 2.74027 32.2358 2.77268 32.0304L3.10394 29.9301C3.13589 29.7244 3.31306 29.5736 3.52043 29.5736H4.48175C6.48214 29.5736 7.63655 28.6056 7.9382 26.6874C8.07403 25.8482 7.94396 25.1888 7.55087 24.7268C7.11935 24.2199 6.35371 23.9515 5.33739 23.9515ZM5.68774 26.7956C5.52171 27.8853 4.68913 27.8853 3.8841 27.8853H3.42585L3.74733 25.8502C3.76642 25.7273 3.87298 25.6367 3.99732 25.6367H4.20735C4.75572 25.6367 5.27307 25.6367 5.54041 25.9493C5.69966 26.1358 5.74856 26.4128 5.68774 26.7956ZM14.4149 26.7607H12.9607C12.8367 26.7607 12.7297 26.8513 12.7106 26.9744L12.6463 27.3811L12.5445 27.2337C12.2297 26.7767 11.5278 26.6241 10.8271 26.6241C9.22002 26.6241 7.84759 27.8412 7.58025 29.5485C7.44134 30.4001 7.63881 31.2144 8.12191 31.7823C8.56514 32.3045 9.19926 32.5221 9.9536 32.5221C11.2484 32.5221 11.9665 31.6895 11.9665 31.6895L11.9016 32.0937C11.8771 32.2482 11.9961 32.3867 12.151 32.3867H13.461C13.6694 32.3867 13.8451 32.2356 13.8779 32.0302L14.6639 27.0529C14.6888 26.8998 14.5702 26.7607 14.4149 26.7607ZM12.3878 29.5911C12.2474 30.4218 11.588 30.9795 10.7472 30.9795C10.3249 30.9795 9.9873 30.8441 9.77071 30.5875C9.55578 30.3327 9.47399 29.9698 9.54242 29.5658C9.67352 28.742 10.344 28.1662 11.1721 28.1662C11.5849 28.1662 11.9207 28.3033 12.1418 28.5622C12.3633 28.8238 12.4513 29.1887 12.3878 29.5911ZM20.6984 26.7605H22.1598C22.3644 26.7605 22.4838 26.99 22.3675 27.1579L17.5072 34.1736C17.4285 34.2872 17.2988 34.3548 17.1603 34.3548H15.7008C15.4953 34.3548 15.3753 34.1234 15.4943 33.9551L17.0077 31.8189L15.3981 27.0952C15.3424 26.9311 15.4637 26.7605 15.6383 26.7605H17.0742C17.2608 26.7605 17.4254 26.883 17.4793 27.0615L18.3335 29.9145L20.3491 26.9457C20.428 26.8298 20.5591 26.7605 20.6984 26.7605Z" fill="#253B80"/>
    <path fill-rule="evenodd" clip-rule="evenodd" d="M36.5422 32.0942L37.7885 24.1648C37.8076 24.0417 37.9142 23.9511 38.0381 23.9507H39.4412C39.5961 23.9507 39.7151 24.0896 39.6906 24.2433L38.4616 32.0299C38.4296 32.2354 38.2529 32.3864 38.0447 32.3864H36.7917C36.6367 32.3864 36.5178 32.2479 36.5422 32.0942ZM26.9977 23.9511H23.9604C23.7531 23.9511 23.5763 24.1021 23.5439 24.3072L22.3157 32.0942C22.2912 32.2479 22.4102 32.3864 22.5654 32.3864H24.1238C24.2686 32.3864 24.3925 32.2808 24.4151 32.137L24.7636 29.9297C24.7957 29.724 24.9728 29.5731 25.1801 29.5731H26.141C28.1418 29.5731 29.296 28.6051 29.5979 26.6869C29.7341 25.8477 29.6032 25.1883 29.2103 24.7264C28.779 24.2195 28.014 23.9511 26.9977 23.9511ZM27.348 26.7952C27.1824 27.8849 26.3498 27.8849 25.5443 27.8849H25.0864L25.4084 25.8498C25.4275 25.7269 25.5332 25.6363 25.6579 25.6363H25.8679C26.4159 25.6363 26.9338 25.6363 27.2009 25.9488C27.3603 26.1354 27.4088 26.4124 27.348 26.7952ZM36.0743 26.7603H34.6211C34.4962 26.7603 34.3902 26.8509 34.3715 26.974L34.3072 27.3806L34.205 27.2333C33.8902 26.7763 33.1887 26.6236 32.488 26.6236C30.8809 26.6236 29.5089 27.8407 29.2415 29.5481C29.1031 30.3996 29.2997 31.2139 29.7828 31.7819C30.2268 32.304 30.8601 32.5216 31.6145 32.5216C32.9092 32.5216 33.6272 31.689 33.6272 31.689L33.5625 32.0932C33.538 32.2477 33.657 32.3862 33.813 32.3862H35.1223C35.3296 32.3862 35.5064 32.2352 35.5388 32.0297L36.3252 27.0525C36.3493 26.8994 36.2303 26.7603 36.0743 26.7603ZM34.0474 29.5906C33.9079 30.4214 33.2477 30.9791 32.4066 30.9791C31.9852 30.9791 31.6469 30.8437 31.4302 30.587C31.2152 30.3322 31.1345 29.9693 31.2021 29.5653C31.3338 28.7416 32.0035 28.1658 32.8316 28.1658C33.2446 28.1658 33.5801 28.3028 33.8015 28.5618C34.0238 28.8233 34.1117 29.1883 34.0474 29.5906Z" fill="#179BD7"/>
    <path d="M16.5757 21.1651L16.9491 18.7939L16.1175 18.7745H12.1465L14.9061 1.27627C14.9146 1.22344 14.9425 1.17418 14.9832 1.13921C15.0239 1.10424 15.0761 1.08496 15.1303 1.08496H21.826C24.049 1.08496 25.5829 1.54753 26.3839 2.46051C26.7593 2.88883 26.9985 3.33639 27.1142 3.82894C27.2354 4.34577 27.2377 4.96323 27.1191 5.71633L27.1105 5.7713V6.25384L27.4861 6.46658C27.8023 6.63431 28.0534 6.82634 28.2462 7.04621C28.5676 7.4124 28.7753 7.87782 28.8631 8.42961C28.9537 8.99712 28.9237 9.6724 28.7753 10.4369C28.6039 11.3164 28.3269 12.0823 27.953 12.7091C27.6088 13.2866 27.1705 13.7654 26.6502 14.1368C26.1533 14.4894 25.563 14.7571 24.8956 14.9285C24.2487 15.0968 23.5114 15.1818 22.7026 15.1818H22.1815C21.809 15.1818 21.4469 15.316 21.1629 15.5567C20.8781 15.8022 20.6895 16.1376 20.6318 16.5046L20.5925 16.7181L19.9329 20.8974L19.9029 21.0509C19.8951 21.0996 19.8815 21.1238 19.8616 21.1403C19.8437 21.1551 19.818 21.1651 19.793 21.1651H16.5757Z" fill="#253B80"/>
    <path d="M27.8417 5.82812C27.8218 5.9559 27.7989 6.08652 27.7733 6.22072C26.8901 10.7543 23.8693 12.3205 20.0109 12.3205H18.0465C17.5747 12.3205 17.177 12.6631 17.1035 13.1285L16.0976 19.5074L15.8128 21.3155C15.765 21.621 16.0007 21.8966 16.3089 21.8966H19.7933C20.2059 21.8966 20.5562 21.5968 20.6212 21.1899L20.6555 21.0128L21.3116 16.8497L21.3537 16.6214C21.4178 16.2131 21.769 15.9133 22.1816 15.9133H22.7027C26.0784 15.9133 28.7212 14.5427 29.4936 10.5766C29.8162 8.91974 29.6491 7.53634 28.7953 6.56337C28.537 6.26998 28.2165 6.02656 27.8417 5.82812Z" fill="#179BD7"/>
    <path d="M26.9181 5.46001C26.7833 5.42074 26.644 5.38504 26.5011 5.35293C26.3577 5.32153 26.2106 5.29369 26.0593 5.26942C25.5296 5.18375 24.9493 5.14307 24.3275 5.14307H19.0795C18.9502 5.14307 18.8275 5.17233 18.7176 5.22516C18.4755 5.3415 18.2957 5.57066 18.2522 5.85119L17.1356 12.9225L17.1035 13.1287C17.1771 12.6633 17.5747 12.3207 18.0465 12.3207H20.0109C23.8693 12.3207 26.8903 10.7538 27.7733 6.22096C27.7996 6.08675 27.8218 5.95613 27.8417 5.82836C27.6184 5.70985 27.3763 5.60849 27.1157 5.5221C27.0516 5.50069 26.9853 5.48 26.9181 5.46001Z" fill="#222D65"/>
    <path d="M18.2514 5.85081C18.295 5.57026 18.475 5.34112 18.7168 5.22548C18.8276 5.17265 18.9496 5.14338 19.0787 5.14338H24.327C24.9487 5.14338 25.529 5.18407 26.0586 5.26974C26.21 5.294 26.3571 5.32185 26.5006 5.35325C26.6434 5.38538 26.7825 5.42108 26.9175 5.46032C26.9845 5.48032 27.0509 5.50101 27.1158 5.52172C27.3763 5.60809 27.6184 5.71017 27.8418 5.82796C28.1046 4.15258 27.8397 3.01187 26.9339 1.97894C25.9353 0.841814 24.1328 0.35498 21.8264 0.35498H15.1305C14.6593 0.35498 14.2576 0.697605 14.1847 1.16375L11.3958 18.8419C11.3408 19.1916 11.6106 19.5073 11.9632 19.5073H16.0971L17.135 12.9221L18.2514 5.85081Z" fill="#253B80"/>
</svg>
