<svg width="24" height="25" viewBox="0 0 24 25" fill="none" xmlns="http://www.w3.org/2000/svg">
<path fill-rule="evenodd" clip-rule="evenodd" d="M4 5.5H5V20.5H20V21.5H4V5.5ZM14 9C14 8.86739 14.0527 8.74021 14.1464 8.64645C14.2402 8.55268 14.3674 8.5 14.5 8.5H18.5C18.6326 8.5 18.7598 8.55268 18.8536 8.64645C18.9473 8.74021 19 8.86739 19 9V13C19 13.1326 18.9473 13.2598 18.8536 13.3536C18.7598 13.4473 18.6326 13.5 18.5 13.5C18.3674 13.5 18.2402 13.4473 18.1464 13.3536C18.0527 13.2598 18 13.1326 18 13V10.4L14.387 14.817C14.3428 14.871 14.2877 14.9151 14.2254 14.9465C14.1631 14.978 14.0949 14.996 14.0252 14.9995C13.9555 15.003 13.8858 14.9918 13.8207 14.9668C13.7556 14.9417 13.6964 14.9033 13.647 14.854L11.06 12.267L7.404 17.294C7.32402 17.3957 7.20774 17.4624 7.07958 17.4802C6.95143 17.4979 6.82138 17.4653 6.71677 17.3892C6.61216 17.3131 6.54113 17.1994 6.51861 17.072C6.49609 16.9446 6.52383 16.8134 6.596 16.706L10.596 11.206C10.6385 11.1475 10.6931 11.0989 10.7561 11.0636C10.8192 11.0282 10.8891 11.007 10.9612 11.0013C11.0332 10.9956 11.1056 11.0056 11.1735 11.0306C11.2413 11.0555 11.3029 11.0949 11.354 11.146L13.963 13.756L17.445 9.5H14.5C14.3674 9.5 14.2402 9.44732 14.1464 9.35355C14.0527 9.25979 14 9.13261 14 9Z" fill="#25BD26" stroke="#25BD26" stroke-width="0.7"/>
</svg>
