<svg width="36" height="25" viewBox="0 0 36 25" fill="none" xmlns="http://www.w3.org/2000/svg">
    <rect x="1.15234" y="0.85498" width="34" height="23" rx="3.5" fill="white" stroke="#D9D9D9"/>
    <path fill-rule="evenodd" clip-rule="evenodd" d="M11.2776 16.6132H9.15728L7.5673 10.5474C7.49183 10.2683 7.33159 10.0216 7.09589 9.90538C6.50765 9.61321 5.85946 9.38069 5.15234 9.26341V9.02988H8.56802C9.03943 9.02988 9.39299 9.38069 9.45191 9.78811L10.2769 14.1636L12.3962 9.02988H14.4576L11.2776 16.6132ZM15.6361 16.6132H13.6336L15.2825 9.02988H17.285L15.6361 16.6132ZM19.8757 11.1307C19.9346 10.7223 20.2882 10.4887 20.7007 10.4887C21.3489 10.4301 22.055 10.5474 22.6442 10.8385L22.9978 9.20579C22.4085 8.97225 21.7603 8.85498 21.1721 8.85498C19.2286 8.85498 17.8143 9.90539 17.8143 11.3632C17.8143 12.4723 18.8161 13.0546 19.5232 13.4054C20.2882 13.7552 20.5828 13.9887 20.5239 14.3385C20.5239 14.8632 19.9346 15.0968 19.3464 15.0968C18.6393 15.0968 17.9322 14.9219 17.285 14.6297L16.9315 16.2634C17.6386 16.5546 18.4036 16.6719 19.1107 16.6719C21.2899 16.7295 22.6442 15.6801 22.6442 14.105C22.6442 12.1215 19.8757 12.0052 19.8757 11.1307ZM29.6523 16.6132L28.0624 9.02988H26.3545C26.001 9.02988 25.6474 9.26341 25.5296 9.61321L22.5853 16.6132H24.6467L25.0581 15.5052H27.5909L27.8267 16.6132H29.6523ZM26.6492 11.0721L27.2374 13.9301H25.5885L26.6492 11.0721Z" fill="#172B85"/>
</svg>
